<?xml version="1.0" encoding="UTF-8" standalone="no"?>
<!DOCTYPE svg PUBLIC "-//W3C//DTD SVG 20010904//EN"
              "http://www.w3.org/TR/2001/REC-SVG-20010904/DTD/svg10.dtd">

<svg xmlns="http://www.w3.org/2000/svg"
     width="22.2222in" height="4.44444in"
     viewBox="0 0 2000 400">
  <path id="選択範囲 #1"
        fill="#bdcedd" stroke="none" stroke-width="1"
        d="M 997.50,76.00
           C 997.50,76.00 997.38,71.50 997.38,71.50
             997.38,71.50 992.00,71.00 992.00,71.00
             992.00,71.00 992.00,76.00 992.00,76.00
             992.00,76.00 983.00,77.00 983.00,77.00
             983.00,77.00 983.00,82.00 983.00,82.00
             983.00,82.00 980.00,82.00 980.00,82.00
             980.00,82.00 975.00,114.00 975.00,114.00
             975.00,114.00 975.00,161.00 975.00,161.00
             975.00,161.00 966.00,161.00 966.00,161.00
             966.00,161.00 966.00,132.00 966.00,132.00
             966.00,132.00 950.00,133.00 950.00,133.00
             950.00,133.00 931.00,134.00 931.00,134.00
             931.00,134.00 931.00,186.00 931.00,186.00
             931.00,186.00 929.00,186.00 929.00,186.00
             929.00,186.00 929.00,171.00 929.00,171.00
             929.00,171.00 926.00,171.00 926.00,171.00
             926.00,171.00 926.00,177.00 926.00,177.00
             926.00,177.00 918.00,177.00 918.00,177.00
             918.00,177.00 918.00,197.00 918.00,197.00
             918.00,197.00 916.00,197.00 916.00,197.00
             916.00,197.00 916.00,142.00 916.00,142.00
             916.00,142.00 901.00,143.00 901.00,143.00
             901.00,143.00 901.00,179.00 901.00,179.00
             901.00,179.00 895.00,179.00 895.00,179.00
             895.00,179.00 895.00,165.00 895.00,165.00
             895.00,165.00 895.12,157.00 895.12,157.00
             895.12,157.00 869.00,157.00 869.00,157.00
             869.00,157.00 869.00,174.00 869.00,174.00
             869.00,174.00 857.00,174.00 857.00,174.00
             857.00,174.00 857.00,177.88 857.00,177.88
             857.00,177.88 851.12,177.96 848.00,178.00
             848.00,178.00 848.00,190.00 848.00,190.00
             848.00,190.00 845.62,190.50 845.62,190.50
             845.62,190.50 845.75,188.12 845.75,188.12
             845.75,188.12 834.25,188.00 830.00,188.00
             829.51,189.48 830.00,192.38 830.00,192.38
             830.00,192.38 825.00,193.00 825.00,193.00
             825.00,193.00 825.00,217.00 825.00,217.00
             825.00,217.00 823.00,217.00 823.00,217.00
             823.00,217.00 823.00,205.00 823.00,205.00
             823.00,205.00 809.00,205.00 809.00,205.00
             809.00,205.00 809.00,188.00 809.00,188.00
             809.00,188.00 804.00,188.00 804.00,188.00
             804.00,188.00 804.00,183.00 804.00,183.00
             804.00,183.00 801.00,184.00 801.00,184.00
             801.00,184.00 801.00,178.00 801.00,178.00
             801.00,178.00 787.00,178.00 787.00,178.00
             787.00,178.00 787.00,184.00 787.00,184.00
             787.00,184.00 775.00,182.00 775.00,182.00
             775.00,182.00 775.00,218.00 775.00,218.00
             775.00,218.00 772.00,218.00 772.00,218.00
             772.00,218.00 772.00,201.00 772.00,201.00
             772.00,201.00 763.00,201.00 763.00,201.00
             763.00,201.00 763.00,205.00 763.00,205.00
             763.00,205.00 750.00,203.00 750.00,203.00
             750.00,203.00 749.00,230.00 749.00,230.00
             749.00,230.00 725.00,231.00 725.00,231.00
             725.00,231.00 708.00,232.00 708.00,232.00
             708.00,232.00 592.00,237.00 592.00,237.00
             592.00,237.00 574.00,238.00 574.00,238.00
             574.00,238.00 557.00,239.00 557.00,239.00
             557.00,239.00 533.00,241.00 533.00,241.00
             533.00,241.00 514.00,242.00 514.00,242.00
             514.00,242.00 499.00,242.00 499.00,242.00
             499.00,242.00 482.00,243.00 482.00,243.00
             482.00,243.00 468.00,244.00 468.00,244.00
             468.00,244.00 454.00,245.00 454.00,245.00
             454.00,245.00 444.00,245.00 444.00,245.00
             444.00,245.00 434.00,246.00 434.00,246.00
             434.00,246.00 417.00,247.00 417.00,247.00
             417.00,247.00 406.00,247.00 406.00,247.00
             406.00,247.00 390.00,248.00 390.00,248.00
             390.00,248.00 379.00,249.04 379.00,249.04
             379.00,249.04 369.00,249.04 369.00,249.04
             369.00,249.04 357.00,250.96 357.00,250.96
             357.00,250.96 347.00,250.96 347.00,250.96
             347.00,250.96 313.00,253.00 313.00,253.00
             313.00,253.00 286.00,254.91 286.00,254.91
             286.00,254.91 243.00,257.00 243.00,257.00
             243.00,257.00 226.00,258.96 226.00,258.96
             226.00,258.96 217.00,258.96 217.00,258.96
             217.00,258.96 196.00,260.91 196.00,260.91
             196.00,260.91 173.00,262.09 173.00,262.09
             173.00,262.09 161.00,263.00 161.00,263.00
             161.00,263.00 136.00,264.09 136.00,264.09
             136.00,264.09 100.00,267.09 100.00,267.09
             100.00,267.09 90.00,268.00 90.00,268.00
             90.00,268.00 56.00,269.91 56.00,269.91
             56.00,269.91 33.00,271.09 33.00,271.09
             33.00,271.09 0.00,273.00 0.00,273.00
             0.00,273.00 0.00,400.00 0.00,400.00
             0.00,400.00 2000.00,400.00 2000.00,400.00
             2000.00,400.00 2000.00,273.00 2000.00,273.00
             2000.00,273.00 1972.00,271.17 1972.00,271.17
             1972.00,271.17 1947.00,269.17 1947.00,269.17
             1947.00,269.17 1910.00,266.83 1910.00,266.83
             1910.00,266.83 1887.00,264.91 1887.00,264.91
             1887.00,264.91 1877.00,264.00 1877.00,264.00
             1877.00,264.00 1844.00,261.17 1844.00,261.17
             1844.00,261.17 1825.00,259.83 1825.00,259.83
             1825.00,259.83 1799.00,258.00 1799.00,258.00
             1799.00,258.00 1788.00,257.09 1788.00,257.09
             1788.00,257.09 1764.00,255.17 1764.00,255.17
             1764.00,255.17 1743.00,254.00 1743.00,254.00
             1743.00,254.00 1732.00,253.09 1732.00,253.09
             1732.00,253.09 1713.00,251.91 1713.00,251.91
             1713.00,251.91 1700.00,250.17 1700.00,250.17
             1700.00,250.17 1663.00,248.00 1663.00,248.00
             1663.00,248.00 1653.00,247.09 1653.00,247.09
             1653.00,247.09 1625.00,245.09 1625.00,245.09
             1625.00,245.09 1603.00,243.91 1603.00,243.91
             1603.00,243.91 1591.00,243.00 1591.00,243.00
             1591.00,243.00 1565.00,241.91 1565.00,241.91
             1565.00,241.91 1527.00,239.00 1527.00,239.00
             1527.00,239.00 1512.00,238.00 1512.00,238.00
             1512.00,238.00 1498.00,238.00 1498.00,238.00
             1498.00,238.00 1485.00,237.00 1485.00,237.00
             1485.00,237.00 1466.00,236.00 1466.00,236.00
             1466.00,236.00 1439.00,235.00 1439.00,235.00
             1439.00,235.00 1426.00,234.00 1426.00,234.00
             1426.00,234.00 1421.00,234.00 1421.00,234.00
             1421.00,234.00 1404.00,233.00 1404.00,233.00
             1404.00,233.00 1387.00,233.00 1387.00,233.00
             1387.00,233.00 1367.00,232.00 1367.00,232.00
             1367.00,232.00 1340.00,230.00 1340.00,230.00
             1340.00,230.00 1330.00,230.00 1330.00,230.00
             1330.00,230.00 1315.00,228.96 1315.00,228.96
             1315.00,228.96 1302.00,228.96 1302.00,228.96
             1302.00,228.96 1290.00,227.96 1290.00,227.96
             1290.00,227.96 1276.00,227.96 1276.00,227.96
             1276.00,227.96 1264.00,227.00 1264.00,227.00
             1264.00,227.00 1248.00,227.00 1248.00,227.00
             1248.00,227.00 1248.00,209.00 1248.00,209.00
             1248.00,209.00 1239.00,208.00 1239.00,208.00
             1239.00,208.00 1239.00,190.00 1239.00,190.00
             1236.41,190.00 1226.00,190.00 1226.00,190.00
             1226.00,190.00 1226.00,176.64 1226.00,172.00
             1226.00,172.00 1224.00,172.00 1224.00,172.00
             1224.00,172.00 1224.00,187.00 1224.00,187.00
             1224.00,187.00 1220.00,187.00 1220.00,187.00
             1220.00,187.00 1220.00,177.00 1220.00,177.00
             1220.00,177.00 1218.88,177.25 1218.88,177.25
             1218.88,177.25 1219.00,188.00 1219.00,188.00
             1219.00,188.00 1210.38,188.00 1210.38,188.00
             1210.38,188.00 1210.12,183.39 1210.00,180.00
             1210.00,180.00 1193.00,180.00 1193.00,180.00
             1193.00,180.00 1193.00,190.00 1193.00,190.00
             1193.00,190.00 1188.00,190.00 1188.00,190.00
             1188.00,190.00 1188.00,208.00 1188.00,208.00
             1188.00,208.00 1177.12,208.12 1177.12,208.12
             1177.12,208.12 1177.03,199.95 1177.00,196.00
             1177.00,196.00 1177.00,143.00 1177.00,143.00
             1177.00,138.37 1177.96,125.56 1175.40,122.22
             1172.48,118.42 1166.39,118.10 1162.00,118.00
             1162.00,118.00 1162.00,126.00 1162.00,126.00
             1162.00,126.00 1159.00,126.00 1159.00,126.00
             1159.00,126.00 1159.00,154.00 1159.00,154.00
             1159.00,154.00 1158.96,162.96 1158.96,162.96
             1158.96,162.96 1157.09,163.13 1157.09,163.13
             1157.09,163.13 1157.00,186.00 1157.00,186.00
             1157.00,186.00 1150.00,186.00 1150.00,186.00
             1150.00,186.00 1150.00,189.00 1150.00,189.00
             1150.00,189.00 1140.00,189.00 1140.00,189.00
             1140.00,189.00 1140.00,153.00 1140.00,153.00
             1140.00,153.00 1135.00,153.00 1135.00,153.00
             1135.00,153.00 1135.00,149.00 1135.00,149.00
             1135.00,149.00 1127.00,149.00 1127.00,149.00
             1127.00,149.00 1127.00,153.00 1127.00,153.00
             1127.00,153.00 1125.00,153.00 1125.00,153.00
             1125.00,153.00 1125.00,149.00 1125.00,149.00
             1125.00,149.00 1122.00,149.00 1122.00,149.00
             1122.00,149.00 1122.00,141.00 1122.00,141.00
             1122.00,141.00 1121.00,149.00 1121.00,149.00
             1121.00,149.00 1117.00,149.00 1117.00,149.00
             1117.00,149.00 1117.00,154.00 1117.00,154.00
             1117.00,154.00 1111.00,154.00 1111.00,154.00
             1111.00,154.00 1111.00,188.00 1111.00,188.00
             1111.00,188.00 1108.00,188.00 1108.00,188.00
             1108.00,188.00 1108.38,160.00 1108.38,160.00
             1108.38,160.00 1098.62,150.12 1098.62,150.12
             1098.62,150.12 1088.00,150.00 1088.00,150.00
             1088.00,150.00 1087.38,151.88 1087.38,151.88
             1087.38,151.88 1080.00,152.00 1080.00,152.00
             1080.00,152.00 1077.00,135.00 1077.00,135.00
             1077.00,135.00 1068.01,133.78 1068.01,133.78
             1068.01,133.78 1054.00,130.00 1054.00,130.00
             1054.00,130.00 1054.00,96.00 1054.00,96.00
             1054.00,96.00 1053.01,118.71 1053.00,125.00
             1053.00,127.38 1052.75,133.50 1052.75,133.50
             1052.75,133.50 1040.45,139.98 1036.00,141.00
             1036.00,141.00 1036.00,181.00 1036.00,181.00
             1036.00,181.00 1011.00,181.00 1011.00,181.00
             1011.00,181.00 1011.00,76.00 1011.00,76.00
             1003.77,76.00 997.50,76.00 997.50,76.00 Z" />
</svg>
